<svg width="72" height="737" viewBox="0 0 72 737" fill="none" xmlns="http://www.w3.org/2000/svg">
<g clip-path="url(#clip0_19_2)">
<path d="M29.8001 710.3C28.6001 707.5 27.9001 704.7 28.0001 701.6C28.0001 700.5 28.0001 699.5 27.2001 698.4C26.3001 697.3 28.6001 696.3 28.1001 694.9C28.0001 694.6 28.2001 694.1 28.1001 693.9C26.5001 691.7 27.3001 689.2 27.1001 686.8C27.2001 686 26.1001 685.8 26.1001 685.2C26.5001 679.2 25.8001 673.4 23.1001 668C23.0001 667.7 23.2001 667.3 23.1001 667C21.9001 665 22.4001 661.9 18.1001 660.5C20.6001 663.2 20.0001 665.6 20.1001 667.9C20.1001 668.2 20.5001 668.4 20.5001 668.7C21.1001 670.8 21.2001 673.1 23.0001 674.6C22.2001 675.8 24.5001 676.6 23.3001 677.9C22.0001 679.4 24.5001 680.1 24.2001 681.9C23.9001 683.4 24.5001 685.5 26.0001 686.7C25.0001 690.4 24.2001 694.1 25.9001 697.9C26.3001 698.8 26.3001 700.4 25.8001 701.3C24.6001 703.7 25.1001 705.7 25.7001 708.1C26.5001 711.1 27.9001 714.2 27.8001 717.2C27.6001 723.8 29.3001 730.2 29.0001 736.8C29.3001 736.8 29.7001 736.8 30.0001 736.8C30.3001 736.8 30.7001 736.8 31.0001 736.8C31.0001 736.1 30.7001 735.8 30.0001 735.8C30.0001 734.8 30.0001 733.8 30.0001 732.8C30.3001 732.7 30.8001 732.6 30.8001 732.5C30.9001 731.9 30.5001 731.8 30.0001 731.8C30.5001 729.6 31.2001 727.6 31.1001 725.2C30.9001 723 30.6001 720.7 32.0001 718.7C30.6001 716.1 31.0001 713 29.8001 710.3Z" fill="#B7B7B7"/>
<path d="M71.5 78C71.6 72.8 71.2 67.5 70.9 62.3C70.3 53.5 69 45.2 64.6 37.1C60.9 30.1 58.3 22.4 58.7 13.8C58.9 9.3 59.3 4.1 56 0C53.3 0 50.7 0 48 0C47.2 0.8 47.2 1.9 47.6 2.8C49 6.9 48.8 11.2 49.2 15.5C49.6 19.8 47.7 24.6 51.1 28.5C51.2 28.7 51.3 28.8 51.4 29H51.3C51.1 28.8 51 28.5 50.8 28.3C45.8 21.9 41.9 14.9 38.5 7.6C37.4 5 36.8 2.2 35 0C32.7 0 30.3 0 28 0C27.4 3 29.8 5.6 28.9 8.4C30.4 9.9 32.3 11.1 32.5 13.1C32.7 15.4 34.5 16.6 35.1 18.6C36.1 21.8 37.2 24.8 41.2 26.2C44.1 27.2 45.7 30.5 47.1 33.5C48.6 36.7 49.9 40.1 52.3 42.8C54 44.7 55.9 46.4 57.4 48.6C58.8 50.6 59.2 53.7 62 54.7C61.7 55.8 63.1 56.2 63 57.3C63 59.2 62.5 61.2 63.9 62.9C65.4 64.7 61.3 66.7 63.9 68.6C60.6 71.8 65.9 75.6 63.1 78.8C64.9 81.9 63.5 85.3 63.9 88.5C64 89.4 64 90.3 63.4 91.3C60.4 96.7 58.1 102.5 54.7 107.6C52.7 110.6 51.7 113.7 50.6 117C50.1 117.3 49.3 117 49 117.5C48.9 122.6 47.3 127.2 44.9 132C44.9 133.1 44.5 134.9 45 136.4C45.6 138 42.9 139.2 45.1 140.8C43.3 141 44.3 142.8 43.1 143.5C42.8 143.7 43.1 144.8 42.8 145.3C41.8 148.1 41.6 151 40 153.7C38.4 156.3 37.8 159.5 37 162.4C36.2 165.6 36.5 169.1 36 172.5C35.4 176.6 34.7 180.5 33.1 184.4C31.7 187.9 30.9 191.5 29.9 195C29.6 195.9 29.7 197.2 30.2 197.8C31.2 198.9 30.8 200 30.9 201.1C31 202.8 30.9 204.4 30.9 206.1C31 207.7 30.5 209.4 31.2 211C32 212.6 30.7 213.8 30.8 215.3C31.1 220.3 30.9 225.3 30.9 230.3C30.9 231.9 30.6 233.5 31.8 234.9C32.4 235.7 31.6 236.9 31 237.9C32.8 238.7 33 240.7 33.9 242.2C33.2 243.3 32.3 244.5 32.9 245.7C34.5 249.2 33.6 252.8 33.9 256.3C34 257.2 33.7 258.1 34.3 259.1C36.5 262.6 37.4 266.5 36.7 270.5C36.4 272 38.7 273.2 36.9 274.7C38.3 275.6 37.6 277.1 37.8 278.3C37.9 278.7 38.5 279 38.6 279.5C38.8 280.3 38.9 281.1 39.8 281.6C39.8 282.7 39.8 283.9 39.8 285.1C39.7 286.4 40.2 287.7 38.9 288.7C37.8 289.6 40.8 290.4 39.1 291.4C39.9 293.5 38.5 295.4 38.8 297.5C39.1 300 38.9 302.5 38.9 305C38.9 306.2 39.4 307.7 38.8 308.4C37.8 309.8 37.6 311.2 38 312.5C38.4 314.3 36.4 315.4 36.9 317.1C38 320.7 34.1 324.2 36.8 327.7C35 330.8 36.4 334.1 35.9 337.3C35.7 338.4 36.7 338.9 36.7 339.8C36.1 340.4 35.5 341 35 341.5C34.6 345 35 348.2 38 350.6C36.6 351.6 36.8 352.7 37.3 354.2C38.4 354 39.5 353.8 40.8 353.5C43.1 356.7 43.1 356.7 42.9 363.7C41.7 364.4 40.5 364.6 39.9 366.4C38.9 369.3 37.3 372 36.2 374.9C35 378.2 33.3 381.6 34 385.5C34.2 387.1 35.5 388.3 35.1 390.1C34.7 392.2 35.1 394.3 36.4 396C36.7 396.4 37.1 396.7 37 397.2C36.4 401.3 38.5 405.2 38 409.3C37.7 411.8 37.9 414.3 37.9 416.8C37.9 417.5 37.9 418.2 38.9 418.1C39.2 419.5 38.8 420.8 39.5 422.4C40.4 424.3 40.7 426.6 40 428.9C39.5 430.6 37.2 431.3 37.8 433.6C38 434.2 36.4 433.9 36.3 434.3C35.6 436.1 33.7 437.8 35.9 439.8C36.1 440 35.9 440.8 35.9 441.7C34.2 442.2 33.5 444.2 33.1 445.6C32.4 448.5 31.3 451.3 31 454.2C30.6 458.5 29.3 462.8 29.8 467.3C30 468.6 30.6 470.3 29.1 471.5C29.2 474.7 27.1 477.4 26.8 480.9C22.9 483.1 22.9 487.5 21.8 491.5C21.5 492.7 23.6 493.4 21.9 494.8C20.9 495.7 23.7 496.7 22.7 497.7C21.5 498.9 21.9 500.1 21.8 501.4C21.7 504.4 21.8 507.4 21.8 510.4C21.7 512.3 22.5 514.4 20.8 516C21.6 518.7 19.4 520.9 19.8 523.6C20 524.8 19.8 529.2 19.5 530.1C17.9 534.8 16 539.3 13.9 543.8C13.1 545.6 12.9 547.8 11.8 549.4C10.2 551.6 9.7 554.2 8.3 556.5C6.9 558.9 5.7 561.5 5.5 564.3C5.2 567.3 2.7 570 4.8 573.3C5.4 574.3 5.6 576.6 4 577.8C4.6 579.1 2.9 579.6 2.9 580.9C2.7 584.1 0.7 587 0.5 590.4C0.5 590.4 0.2 590.4 0 590.4C0 591.4 0 592.4 0 593.4C0 594.7 0 596.1 0 597.4C0.3 597.4 0.7 597.4 1 597.4C3.7 600.5 5.1 603.9 5.2 608.2C5.2 610.3 5.7 612.8 7 614.9C8.2 616.8 8.3 618.9 8.2 622.7C9.6 623.4 7.9 624.5 8.6 625.6C9.2 626.6 9 628.1 9.4 629.2C10.8 633.2 12.3 637.1 13.8 641.1C13.5 641.4 13.2 641.7 13 641.9C14.5 642.9 14.1 645.2 16 646.2C16.3 641.2 15.1 636.6 13.9 632C13.5 630.6 13.7 628.9 13 628C11.9 626.6 12.3 625.2 12.1 623.8C11.7 621.1 10.8 618.5 11 615.8C9.4 614.8 10.8 612.7 9.9 611.8C8.7 610.7 9.5 609.1 8.4 607.8C7.5 606.5 8 604.5 8 603C8 602.2 7 601.8 7.1 601.4C7.3 600.2 6 599.8 6 598.8C6 593.2 5.5 587.5 8.2 582.2C8.6 581.5 9 580.9 9 580C8.9 578.5 9.4 576.9 8.9 575.5C8.3 573.9 10.5 572.9 9.1 571.2C8.3 570.2 10.1 568.8 10.1 567.2C10.1 564.3 11.1 561.4 12.4 558.7C14 555.2 15.9 551.8 16.2 547.9C18.1 547.4 19.2 546.2 20 544.5C20.9 542.7 21.4 540.7 22.4 539C23.3 537.6 23.6 536.2 24.1 534.7C24.6 533.1 24.8 531.6 24.9 530.1C25.2 526.5 22.9 523 24 519.6C25.3 515.4 24.7 511.2 24.9 507C24.9 506 24.9 505 24.6 504.1C23.3 500.1 23.5 496.2 24.9 492.3C24.5 491.8 23.8 491.5 24 490.2C28.2 485.5 30.6 479.1 34 472.8C33 468.7 35.1 464.3 34.9 459.8C36.4 459.9 35.7 461 35.9 461.8C36.1 464.5 35.3 467.3 36.9 469.9C37.4 470.8 36.6 471.7 36 472.4C37.2 473.2 37.2 474.4 36.7 475.4C35 479.5 36.2 483.6 36 487.8C36.9 487.7 37.4 487.9 37.9 487.1C37 483.8 39.5 481 39.9 477.7C40.2 477.7 40.6 477.7 40.9 477.7C40.7 479.5 41.7 480.3 43.3 480.8C44.6 479.8 43.6 478.1 44.8 476.9C45.5 476.1 45.2 474 44.9 472.6C44.5 471.1 47.1 470.4 45.5 468.7C44.8 467.9 46.9 466.5 45.1 465.1C44.4 464.6 45 462.3 45 460.9C43.4 460.8 42.6 460 42.2 459.1C40.9 455.6 43.1 452.5 43.1 449C43.1 447.7 43.9 446.4 44.8 445.2C45.2 444.7 44.9 443.6 45 442.8C45.5 439.1 44.3 435.5 43.8 431.9C43.2 431.3 42.6 430.7 41.7 429.8C43.2 425.8 40.9 421.8 41 417.6C41.2 417.6 41.4 417.6 41.5 417.6C41.6 417.5 41.8 417.3 41.8 417.3C40.6 416 41.2 414.3 40.9 412.8C40.3 408.5 42.3 404.5 41.9 400.2C41.8 398.9 42.4 397 41.8 396.3C40.2 394.7 42.6 393.8 41.9 392.5C41.6 392 42 391.3 41.5 390.7C39.4 388.5 40 385.6 39.9 383.1C37.7 381.2 37.3 379.6 38.7 377C39.7 375.1 41.3 373.1 41 370.4C40.9 369.4 41.9 367.8 43.1 366.8C44.5 365.6 45.8 364.4 46.9 363.4C46.8 357.7 47.6 352.2 41.9 349C43 348.4 44.3 348.1 44.8 347C44.8 345.6 44.8 344.2 44.8 343C44 342.2 43.3 341.5 42.6 340.8C41.8 340 40.6 341.1 39.8 340C39.8 338.3 39.8 336.4 39.8 334.6C39.8 332.6 40.4 330.4 39.6 328.7C38.8 326.8 39.5 325.3 39.9 324C40.4 322.4 37.8 321.5 39.5 320.2C40 315.3 40.9 310.5 41.6 305.6C42.2 301.2 41.9 296.6 41.7 292.1C41.5 287.7 43.4 283.5 42.8 279C42.5 277 42.9 275 42.7 273C42.6 271.6 44.3 270.8 43.7 269.4C43.2 268.1 42.4 267 41.7 265.7C41.6 265.4 41.8 265 41.7 264.7C40.1 261 38.5 257.4 36.9 253.7C37.2 253.3 37.7 253 37.7 252.2C37.8 250.3 37.1 248.3 38.6 246.6C38.8 246.3 38.8 245.5 38.6 245.2C36.2 242 39.1 237.7 36.7 234.5C36.6 234.4 36.9 233.9 37 233.6C38.5 228.8 37.3 223.8 37.7 218.9C37.7 218.6 36.8 218.2 36.8 217.8C36.2 213.1 37.9 208.4 35.9 203.8C35.8 203.6 36.7 203.1 36.7 202.7C36.7 200.3 37.4 197.9 37.6 195.6C37.9 191.4 40.2 187.8 40.1 183.6C41.4 182.7 40.6 181 41.6 179.7C42.3 178.8 41.7 176.8 41.7 175.3C41.7 174.8 41.6 174.3 41.8 173.8C43.3 170 43.8 166.1 43.7 162.1C43.7 161.2 43.2 160.1 44.2 159.4C44.7 159.4 45.2 159.5 45.7 158.8C44.9 154.6 47.4 150.4 46.6 146.1C47.3 145.3 48 144.6 48.8 143.8C48.3 142.1 49 140.7 49.7 139.3C48.2 137.9 50.2 136.5 49.7 135.1C49.1 133.3 50.3 131.9 50.8 130.6C52 127.5 52 123.7 55.2 121.4C56.3 120.6 55.3 118.5 57 117.6C58.6 116.8 57.1 114.8 58.1 113.6C58.6 113.4 59.7 113.6 59.7 112.9C59.7 110.7 61.2 109.2 62.2 107.4C63.3 105.4 65.1 103.6 64.7 100.4C65.8 99.3 67.3 97.9 68.9 96.4C68.9 95.4 68.9 94.1 68.9 93C69.6 92.1 70.6 91.7 70.8 90.6C71.1 90.6 71.5 90.6 71.8 90.6C71.8 89.9 71.8 89.3 71.8 88.6C71.8 87.3 71.8 85.9 71.8 84.6C71.8 82.3 71.8 79.9 71.8 77.6C71.8 78 71.6 78 71.5 78ZM56.5 39.9C55 39.2 54.9 36.9 53.1 36.6C54.7 34.3 51.3 33.1 52 31C52.3 31 52.7 31 53 31C57.1 34.1 57.3 34.6 56.5 39.9Z" fill="#B7B7B7"/>
<path d="M51.6001 524.2C49.7001 522.5 52.9001 521.4 51.9001 520.4C50.5001 518.9 51.0001 517.3 51.1001 515.8C51.2001 513.4 51.0001 510.9 49.9001 508.8C49.1001 507.2 49.1001 505.8 49.0001 504.2C49.0001 502.6 49.0001 500.9 49.0001 498.9C48.2001 498.9 47.8001 498.9 47.5001 498.9C46.2001 500.1 47.9001 502.3 46.1001 503.3C48.2001 504.7 45.7001 506 46.0001 507.4C46.1001 507.9 45.8001 508.5 46.0001 508.9C47.7001 511.4 46.7001 514.3 47.0001 517C47.1001 517.9 46.7001 518.9 47.3001 519.9C48.7001 522 48.1001 524.1 46.8001 526.5C49.6001 527.7 47.6001 532.4 52.0001 533.2C52.0001 531.5 52.1001 530 52.0001 528.6C51.9001 527 52.7001 525.2 51.6001 524.2Z" fill="#B7B7B7"/>
<path d="M45.9999 492.9C45.9999 494.5 45.9999 496.1 45.9999 497.8C47.8999 497.2 47.8999 497.2 48.8999 494.3C48.3999 493.8 47.9999 493.3 47.4999 492.9C47.3999 492.8 47.1999 492.9 46.9999 492.9C46.8999 492 47.2999 491 46.6999 490.1C45.9999 489.8 45.4999 489.8 44.9999 490.4C44.3999 491.6 46.0999 491.9 45.9999 492.9Z" fill="#B7B7B7"/>
<path d="M41 258.8C41 256.5 41 255.3 41 254C40.9 253.7 40.8 253.2 40.7 253.2C40.1 253.1 40 253.5 40 254C40.2 255.2 39.6 256.7 41 258.8Z" fill="#B7B7B7"/>
<path d="M16.6001 650.8C17.1001 650.2 17.1001 649.7 16.5001 648.8C15.9001 649.8 15.6001 650.4 16.6001 650.8Z" fill="#B7B7B7"/>
<path d="M40.7999 250.6C40.6999 250.4 40.6 250.2 40.5 249.9C40.4 250 40.2 250.1 40.2 250.2C40.3 250.4 40.4 250.6 40.5 250.9C40.6 250.9 40.7999 250.7 40.7999 250.6Z" fill="#B7B7B7"/>
<path d="M45.6 488.8C45.7 488.7 45.8 488.6 46 488.4C45.8 488.3 45.6 488.1 45.3 488.1C45.2 488.1 45.1 488.3 45 488.4C45.2 488.6 45.4 488.7 45.6 488.8Z" fill="#B7B7B7"/>
<path d="M45 485.9C45 485.2 45 484.6 45 483.9C45 483.2 44.7 482.9 44 482.9C43.9 482.6 43.8 482.1 43.7 482.1C43.1 482 43 482.4 43 482.9C43 483.6 43.3 483.9 44 483.9C44 484.2 44 484.6 44 484.9C43.7 485 43.2 485.1 43.2 485.2C43.1 485.8 43.5 485.9 44 485.9C44.1 486.2 44.2 486.7 44.3 486.7C44.9 486.9 45 486.4 45 485.9Z" fill="#B7B7B7"/>
</g>
<defs>
<clipPath id="clip0_19_2">
<rect width="72" height="736.9" fill="white"/>
</clipPath>
</defs>
</svg>
