<svg width="455" height="111" viewBox="0 0 455 111" fill="none" xmlns="http://www.w3.org/2000/svg">
<g clip-path="url(#clip0_13_65)">
<path d="M31.1 1.5C44.9 1.5 55 4.4 61.4 10C67.7 15.7 70.9 23.6 70.9 33.8C70.9 38.4 70.2 42.8 68.7 47C67.3 51.2 64.9 54.9 61.6 58.1C58.3 61.3 54 63.8 48.7 65.7C43.4 67.6 36.8 68.5 29 68.5H17.6V108.6H0V1.5H31.1ZM30 16.1H17.6V53.8H27.2C32.7 53.8 37.4 53.2 41.3 51.9C45.2 50.6 48.1 48.5 50.1 45.7C52.1 42.9 53.1 39.1 53.1 34.5C53.1 28.3 51.2 23.7 47.5 20.7C43.7 17.6 37.9 16.1 30 16.1Z" fill="#808080"/>
<path d="M77.2002 108.6V1.5H94.8002V93.6H140.3V108.5H77.2002V108.6Z" fill="#808080"/>
<path d="M207.4 108.6H146.8V1.5H207.4V16.3H164.3V45.4H204.7V60.1H164.3V93.7H207.4V108.6Z" fill="#808080"/>
<path d="M293.8 108.6L283.3 78.9001H242.4L231.9 108.6H213.4L253.2 1.1001H272.7L312.5 108.6H293.8ZM278.8 63.8001L268.6 34.5001C268.2 33.2001 267.6 31.4001 266.9 29.1001C266.2 26.8001 265.4 24.4001 264.7 22.0001C264 19.6001 263.4 17.5001 262.9 15.9001C262.4 17.9001 261.8 20.1001 261.1 22.6001C260.4 25.1001 259.7 27.4001 259 29.5001C258.3 31.6001 257.8 33.3001 257.5 34.5001L247.2 63.8001H278.8Z" fill="#808080"/>
<path d="M385.4 79.5001C385.4 85.8001 383.8 91.3001 380.7 95.9001C377.6 100.5 373.2 104 367.4 106.4C361.6 108.8 354.7 110.1 346.7 110.1C342.8 110.1 339.1 109.9 335.5 109.4C331.9 109 328.6 108.3 325.4 107.5C322.2 106.6 319.4 105.6 316.8 104.4V87.8001C321.1 89.7001 326 91.4001 331.4 93.0001C336.8 94.5001 342.2 95.3001 347.8 95.3001C352.3 95.3001 356.1 94.7001 359.1 93.5001C362.1 92.3001 364.3 90.6001 365.8 88.4001C367.3 86.2001 368 83.6001 368 80.6001C368 77.4001 367.1 74.7001 365.4 72.5001C363.7 70.3001 361.1 68.3001 357.7 66.5001C354.3 64.7001 349.9 62.7001 344.8 60.6001C341.3 59.2001 337.9 57.6001 334.7 55.8001C331.5 54.0001 328.7 51.9001 326.2 49.4001C323.7 47.0001 321.7 44.1001 320.3 40.7001C318.9 37.4001 318.1 33.4001 318.1 28.9001C318.1 22.8001 319.6 17.7001 322.5 13.4001C325.4 9.1001 329.5 5.8001 334.8 3.5001C340.1 1.2001 346.3 0.100098 353.4 0.100098C359 0.100098 364.3 0.700098 369.3 1.9001C374.3 3.1001 379.1 4.7001 383.9 6.9001L378.3 21.0001C373.9 19.2001 369.6 17.8001 365.5 16.7001C361.4 15.6001 357.2 15.1001 352.9 15.1001C349.2 15.1001 346 15.7001 343.5 16.8001C340.9 17.9001 338.9 19.5001 337.6 21.5001C336.3 23.5001 335.6 25.9001 335.6 28.7001C335.6 31.8001 336.4 34.4001 337.9 36.6001C339.4 38.7001 341.8 40.7001 345.1 42.4001C348.3 44.2001 352.5 46.1001 357.7 48.3001C363.6 50.7001 368.6 53.3001 372.8 56.0001C376.9 58.7001 380.1 61.9001 382.3 65.6001C384.5 69.3001 385.4 73.9001 385.4 79.5001Z" fill="#808080"/>
<path d="M454.7 108.6H394.1V1.5H454.7V16.3H411.6V45.4H452V60.1H411.6V93.7H454.7V108.6V108.6Z" fill="#808080"/>
</g>
<defs>
<clipPath id="clip0_13_65">
<rect width="454.7" height="110.1" fill="white"/>
</clipPath>
</defs>
</svg>
