<svg width="449" height="111" viewBox="0 0 449 111" fill="none" xmlns="http://www.w3.org/2000/svg">
<g clip-path="url(#clip0_13_73)">
<path d="M65.9 81.2002C65.9 87.6002 64.3 93.0002 61.1 97.3002C57.9 101.6 53.5 104.9 48 107C42.5 109.2 36.2 110.3 29.2 110.3C24.9 110.3 20.9 110.1 17.4 109.7C13.9 109.3 10.7 108.7 7.8 108.1C4.9 107.4 2.3 106.6 0 105.8V98.3002C3.8 99.8002 8.2 101 13.2 102.1C18.2 103.2 23.7 103.7 29.6 103.7C35.2 103.7 40.1 102.9 44.4 101.3C48.7 99.7002 52.1 97.2002 54.6 94.0002C57.1 90.7002 58.3 86.6002 58.3 81.6002C58.3 77.2002 57.3 73.6002 55.2 70.8002C53.1 68.0002 50 65.6002 45.9 63.5002C41.7 61.5002 36.5 59.4002 30.2 57.3002C25.8 55.8002 21.8 54.2002 18.2 52.5002C14.6 50.8002 11.5 48.9002 9 46.6002C6.5 44.4002 4.5 41.7002 3.2 38.5002C1.9 35.4002 1.2 31.6002 1.2 27.3002C1.2 21.4002 2.7 16.4002 5.7 12.4002C8.7 8.4002 12.8 5.3002 18 3.3002C23.2 1.2002 28.9 0.200195 35.4 0.200195C40.5 0.200195 45.4 0.700195 50 1.6002C54.6 2.5002 59.1 4.0002 63.4 5.9002L60.8 12.4002C56.5 10.5002 52.2 9.2002 47.9 8.3002C43.5 7.4002 39.3 7.0002 35.1 7.0002C30.1 7.0002 25.6 7.7002 21.7 9.2002C17.8 10.7002 14.7 12.9002 12.4 15.9002C10.1 18.9002 9 22.6002 9 27.2002C9 31.9002 10.1 35.7002 12.2 38.6002C14.3 41.5002 17.4 43.9002 21.3 45.8002C25.2 47.7002 29.9 49.6002 35.3 51.4002C41.6 53.5002 47.1 55.8002 51.7 58.2002C56.3 60.6002 59.8 63.6002 62.4 67.2002C64.7 70.6002 65.9 75.3002 65.9 81.2002Z" fill="#808080"/>
<path d="M122.3 7.0001C115.5 7.0001 109.4 8.2001 104 10.5001C98.6 12.8001 94.1 16.1001 90.4 20.4001C86.7 24.6001 83.9 29.7001 81.9 35.6001C79.9 41.5001 79 48.0001 79 55.0001C79 64.8001 80.5 73.3001 83.6 80.6001C86.7 87.9001 91.3 93.6001 97.5 97.6001C103.7 101.6 111.4 103.6 120.6 103.6C126 103.6 130.9 103.2 135.2 102.4C139.6 101.6 143.7 100.6 147.4 99.3001V105.9C143.8 107.2 139.8 108.3 135.4 109.1C131 109.9 125.7 110.3 119.8 110.3C109.1 110.3 100.1 108 92.9 103.4C85.6 98.8001 80.2 92.4001 76.5 84.1001C72.8 75.7001 71 66.0001 71 54.9001C71 46.9001 72.1 39.6001 74.4 33.0001C76.7 26.3001 80.1 20.5001 84.5 15.6001C88.9 10.7001 94.3 6.9001 100.6 4.2001C106.9 1.5001 114.2 0.100098 122.3 0.100098C127.4 0.100098 132.3 0.600098 137 1.6001C141.7 2.6001 146 4.1001 150.1 6.0001L147.2 12.6001C143.2 10.6001 139.2 9.2001 135 8.3001C130.9 7.4001 126.6 7.0001 122.3 7.0001Z" fill="#808080"/>
<path d="M186.9 1.7002C195.4 1.7002 202.5 2.6002 208.2 4.5002C213.9 6.4002 218.2 9.4002 221.1 13.7002C224 17.9002 225.4 23.7002 225.4 30.9002C225.4 36.3002 224.4 41.0002 222.4 44.9002C220.4 48.8002 217.7 52.0002 214.2 54.5002C210.7 57.0002 206.7 58.9002 202.2 60.2002L231.6 108.9H222.7L195 62.2002H168.4V108.8H160.9V1.7002H186.9ZM186.1 8.3002H168.4V55.5002H189.7C198.4 55.5002 205.3 53.4002 210.2 49.2002C215.1 45.0002 217.6 39.0002 217.6 31.1002C217.6 22.5002 215 16.5002 209.8 13.2002C204.6 10.0002 196.7 8.3002 186.1 8.3002Z" fill="#808080"/>
<path d="M328.1 55.1C328.1 63.3 327.1 70.7 325.1 77.4C323.1 84.1 320.1 89.9 316.1 94.8C312.1 99.7 307.1 103.5 301.1 106.2C295.1 108.9 288.1 110.2 280.2 110.2C272.2 110.2 265.2 108.9 259.2 106.2C253.2 103.5 248.2 99.7 244.2 94.8C240.2 89.9 237.2 84.1 235.2 77.3C233.2 70.5 232.2 63.1 232.2 54.9C232.2 44.1 234 34.5 237.7 26.3C241.4 18 246.8 11.6 254 7C261.2 2.4 270.1 0 280.7 0C290.9 0 299.5 2.2 306.5 6.6C313.6 11 318.9 17.3 322.5 25.6C326.3 33.8 328.1 43.7 328.1 55.1ZM240.1 55C240.1 64.6 241.5 73 244.4 80.3C247.3 87.6 251.7 93.3 257.7 97.4C263.7 101.5 271.2 103.6 280.3 103.6C289.5 103.6 297 101.6 302.9 97.5C308.8 93.4 313.2 87.8 316 80.5C318.8 73.2 320.2 64.8 320.2 55.1C320.2 39.8 316.9 28 310.2 19.5C303.5 11.1 293.7 6.8 280.7 6.8C271.6 6.8 264 8.8 258 12.9C252 17 247.5 22.6 244.5 29.8C241.6 37 240.1 45.4 240.1 55Z" fill="#808080"/>
<path d="M337.6 108.8V1.7002H345.1V101.9H396.1V108.8H337.6V108.8Z" fill="#808080"/>
<path d="M390.5 108.8V1.7002H398V101.9H449V108.8H390.5V108.8Z" fill="#808080"/>
</g>
<defs>
<clipPath id="clip0_13_73">
<rect width="449" height="110.2" fill="white"/>
</clipPath>
</defs>
</svg>
