<svg width="72" height="737" viewBox="0 0 72 737" fill="none" xmlns="http://www.w3.org/2000/svg">
<g clip-path="url(#clip0_19_13)">
<path d="M42.2 710.3C43.4 707.5 44.1 704.7 44 701.6C44 700.5 44 699.5 44.8 698.4C45.7 697.3 43.4 696.3 43.9 694.9C44 694.6 43.8 694.1 43.9 693.9C45.5 691.7 44.7 689.2 44.9 686.8C44.8 686 45.9 685.8 45.9 685.2C45.5 679.2 46.2 673.4 48.9 668C49 667.7 48.8 667.3 48.9 667C50.1 665 49.6 661.9 53.9 660.5C51.4 663.2 52 665.6 51.9 667.9C51.9 668.2 51.5 668.4 51.5 668.7C50.9 670.8 50.8 673.1 49 674.6C49.8 675.8 47.5 676.6 48.7 677.9C50 679.4 47.5 680.1 47.8 681.9C48.1 683.4 47.5 685.5 46 686.7C47 690.4 47.8 694.1 46.1 697.9C45.7 698.8 45.7 700.4 46.2 701.3C47.4 703.7 46.9 705.7 46.3 708.1C45.5 711.1 44.1 714.2 44.2 717.2C44.4 723.8 42.7 730.2 43 736.8C42.7 736.8 42.3 736.8 42 736.8C41.7 736.8 41.3 736.8 41 736.8C41 736.1 41.3 735.8 42 735.8C42 734.8 42 733.8 42 732.8C41.7 732.7 41.2 732.6 41.2 732.5C41.1 731.9 41.5 731.8 42 731.8C41.5 729.6 40.8 727.6 40.9 725.2C41.1 723 41.4 720.7 40 718.7C41.4 716.1 41 713 42.2 710.3Z" fill="#B7B7B7"/>
<path d="M0 78C0 80.3 0 82.7 0 85C0 86.3 0 87.7 0 89C0 89.7 0 90.3 0 91C0.3 91 0.7 91 1 91C1.1 92.1 2.2 92.5 2.9 93.4C2.9 94.5 2.9 95.8 2.9 96.8C4.5 98.4 6 99.7 7.1 100.8C6.7 104 8.5 105.9 9.6 107.8C10.6 109.6 12 111.1 12.1 113.3C12.1 114 13.1 113.8 13.7 114C14.7 115.2 13.2 117.2 14.8 118C16.5 118.9 15.5 120.9 16.6 121.8C19.7 124.1 19.7 127.9 21 131C21.5 132.3 22.8 133.8 22.1 135.5C21.6 136.9 23.6 138.3 22.1 139.7C22.8 141.1 23.5 142.6 23 144.2C23.7 145 24.4 145.7 25.2 146.5C24.4 150.9 26.9 155 26.1 159.2C26.6 160 27.1 159.8 27.6 159.8C28.6 160.5 28.1 161.6 28.1 162.5C28 166.5 28.5 170.4 30 174.2C30.2 174.6 30.1 175.2 30.1 175.7C30.1 177.2 29.5 179.2 30.2 180.1C31.2 181.4 30.4 183.1 31.7 184C31.6 188.2 34 191.8 34.2 196C34.3 198.3 35 200.7 35.1 203.1C35.1 203.5 36 204 35.9 204.2C33.9 208.8 35.6 213.6 35 218.2C35 218.6 34.1 218.9 34.1 219.3C34.4 224.2 33.2 229.2 34.8 234C34.9 234.3 35.2 234.7 35.1 234.9C32.7 238.1 35.6 242.4 33.2 245.6C33 245.9 33 246.8 33.2 247C34.8 248.7 34 250.7 34.1 252.6C34.1 253.4 34.6 253.7 34.9 254.1C33.3 257.8 31.7 261.5 30.1 265.1C30 265.4 30.2 265.8 30.1 266.1C29.5 267.3 28.7 268.5 28.1 269.8C27.5 271.2 29.2 272 29.1 273.4C29 275.4 29.3 277.4 29 279.4C28.4 283.9 30.3 288.1 30.1 292.5C29.9 297 29.6 301.5 30.2 306C30.8 310.9 31.7 315.7 32.3 320.6C34 321.9 31.4 322.8 31.9 324.4C32.3 325.6 33 327.2 32.2 329.1C31.5 330.8 32 333 32 335C32 336.8 32 338.6 32 340.4C31.2 341.5 30 340.4 29.2 341.2C28.5 341.9 27.8 342.6 27 343.4C27 344.7 27 346 27 347.4C27.5 348.6 28.8 348.9 29.9 349.4C24.2 352.6 25 358.1 24.9 363.8C26 364.8 27.3 366 28.7 367.2C29.9 368.2 30.9 369.7 30.8 370.8C30.5 373.5 32.1 375.5 33.1 377.4C34.5 380 34.1 381.6 31.9 383.5C31.9 386 32.4 388.9 30.3 391.1C29.7 391.7 30.1 392.4 29.9 392.9C29.3 394.2 31.6 395.1 30 396.7C29.3 397.4 30 399.3 29.9 400.6C29.5 404.9 31.6 408.9 30.9 413.2C30.7 414.7 31.2 416.4 30 417.7C30 417.7 30.2 418 30.3 418C30.4 418.1 30.6 418 30.8 418C30.9 422.2 28.6 426.2 30.1 430.2C29.2 431.1 28.6 431.7 28 432.3C27.4 435.9 26.3 439.5 26.8 443.2C26.9 444 26.6 445 27 445.6C27.9 446.8 28.7 448.1 28.7 449.4C28.7 452.8 30.9 455.9 29.6 459.5C29.1 460.4 28.3 461.2 26.8 461.3C26.8 462.7 27.4 465 26.7 465.5C24.9 466.8 27 468.2 26.3 469.1C24.7 470.8 27.3 471.5 26.9 473C26.5 474.4 26.2 476.6 27 477.3C28.2 478.5 27.2 480.2 28.5 481.2C30.1 480.7 31.1 479.9 30.9 478.1C31.2 478.1 31.6 478.1 31.9 478.1C32.2 481.4 34.8 484.2 33.9 487.5C34.4 488.3 34.9 488.1 35.8 488.2C35.7 484 36.8 479.9 35.1 475.8C34.7 474.7 34.6 473.5 35.8 472.8C35.2 472.1 34.4 471.2 34.9 470.3C36.5 467.7 35.6 464.9 35.9 462.2C36.1 461.4 35.4 460.3 36.9 460.2C36.7 464.8 38.8 469.1 37.8 473.2C41.2 479.5 43.6 485.8 47.8 490.6C48 491.9 47.3 492.2 46.9 492.7C48.3 496.6 48.4 500.5 47.2 504.5C46.9 505.4 46.9 506.4 46.9 507.4C47.1 511.6 46.5 515.8 47.8 520C48.9 523.5 46.6 527 46.9 530.5C47 532.1 47.2 533.6 47.7 535.1C48.2 536.6 48.6 538 49.4 539.4C50.4 541.1 50.9 543.1 51.8 544.9C52.6 546.7 53.7 547.8 55.6 548.3C55.9 552.2 57.8 555.6 59.4 559.1C60.7 561.8 61.7 564.7 61.7 567.6C61.7 569.2 63.5 570.5 62.7 571.6C61.3 573.3 63.5 574.3 62.9 575.9C62.4 577.2 62.8 578.9 62.8 580.4C62.8 581.3 63.2 581.8 63.6 582.6C66.3 587.8 65.8 593.5 65.8 599.2C65.8 600.2 64.5 600.6 64.7 601.8C64.8 602.2 63.7 602.6 63.8 603.4C63.8 604.9 64.4 606.9 63.6 607.7C62.5 608.9 63.3 610.5 62.1 611.7C61.1 612.6 62.6 614.7 61 615.7C61.3 618.5 60.3 621.1 59.9 623.7C59.7 625.1 60.1 626.5 59 627.9C58.3 628.8 58.4 630.6 58.1 631.9C56.9 636.5 55.7 641.1 56 646.1C57.9 645.1 57.5 642.8 59 641.8C58.7 641.5 58.5 641.3 58.2 641C59.7 637.1 61.2 633.1 62.6 629.1C63 627.9 62.8 626.4 63.4 625.5C64.1 624.5 62.4 623.4 63.8 622.6C63.8 618.9 63.9 616.7 65 614.8C66.3 612.7 66.8 610.2 66.8 608.1C66.8 603.8 68.2 600.4 71 597.3C71.3 597.3 71.7 597.3 72 597.3C72 596 72 594.6 72 593.3C72 592.3 72 591.3 72 590.3C71.8 590.3 71.5 590.3 71.5 590.3C71.3 587 69.3 584.1 69.1 580.8C69 579.5 67.4 579.1 68 577.7C66.3 576.5 66.5 574.2 67.2 573.2C69.3 569.8 66.8 567.2 66.5 564.2C66.2 561.4 65.1 558.8 63.7 556.4C62.3 554.1 61.8 551.5 60.2 549.3C59.1 547.8 58.9 545.5 58.1 543.7C56 539.2 54.1 534.7 52.5 530C52.2 529.1 52 524.7 52.2 523.5C52.6 520.9 50.4 518.6 51.2 515.9C49.6 514.3 50.3 512.2 50.2 510.3C50.1 507.3 50.2 504.3 50.2 501.3C50.2 500 50.5 498.8 49.3 497.6C48.3 496.6 51.2 495.5 50.1 494.7C48.4 493.3 50.6 492.6 50.2 491.4C49.1 487.5 49.1 483.1 45.2 480.8C44.9 477.3 42.9 474.6 42.9 471.4C41.4 470.3 42 468.6 42.2 467.2C42.7 462.7 41.4 458.5 41 454.1C40.7 451.2 39.6 448.4 38.9 445.5C38.6 444.1 37.9 442.1 36.1 441.6C36.1 440.7 35.9 439.9 36.1 439.7C38.3 437.6 36.4 435.9 35.7 434.2C35.5 433.8 34 434.1 34.2 433.5C34.9 431.2 32.5 430.5 32 428.8C31.3 426.5 31.7 424.2 32.5 422.3C33.2 420.8 32.7 419.4 33.1 418C34.1 418.1 34.1 417.4 34.1 416.7C34.1 414.2 34.3 411.7 34 409.2C33.5 405.1 35.6 401.2 35 397.1C34.9 396.5 35.3 396.2 35.6 395.9C37 394.1 37.3 392.1 36.9 390C36.6 388.2 37.8 387 38 385.4C38.6 381.5 37 378.1 35.8 374.8C34.8 372 33.1 369.2 32.1 366.3C31.5 364.5 30.3 364.3 29.1 363.6C28.9 356.5 28.9 356.5 31.2 353.4C32.4 353.6 33.6 353.9 34.7 354.1C35.2 352.6 35.4 351.5 34 350.5C37 348.2 37.4 344.9 37 341.4C36.5 340.9 35.9 340.3 35.3 339.7C35.4 338.8 36.3 338.4 36.1 337.2C35.5 334 37 330.6 35.2 327.6C37.9 324 34 320.5 35.1 317C35.6 315.3 33.6 314.2 34 312.4C34.3 311.1 34.2 309.6 33.2 308.3C32.6 307.5 33.1 306 33.1 304.9C33.1 302.4 32.9 299.9 33.2 297.4C33.4 295.3 32 293.4 32.9 291.3C31.2 290.2 34.2 289.4 33.1 288.6C31.8 287.6 32.2 286.2 32.2 285C32.1 283.8 32.2 282.7 32.2 281.5C33.1 281 33.1 280.2 33.4 279.4C33.5 279 34.1 278.7 34.2 278.2C34.4 277 33.7 275.5 35.1 274.6C33.4 273.2 35.6 272 35.3 270.4C34.6 266.4 35.5 262.5 37.7 259C38.3 258 38.1 257.1 38.1 256.2C38.4 252.7 37.4 249 39.1 245.6C39.7 244.3 38.8 243.1 38.1 242.1C39.1 240.6 39.2 238.7 41 237.8C40.4 236.8 39.5 235.5 40.2 234.8C41.4 233.3 41.1 231.7 41.1 230.2C41.1 225.2 41 220.2 41.2 215.2C41.3 213.7 40 212.5 40.8 210.9C41.6 209.4 41.1 207.7 41.1 206C41.2 204.3 41.1 202.7 41.1 201C41.1 199.9 40.8 198.8 41.8 197.7C42.3 197.1 42.3 195.8 42.1 194.9C41 191.3 40.2 187.7 38.9 184.3C37.4 180.5 36.6 176.5 36 172.4C35.5 169 35.8 165.5 35 162.3C34.2 159.4 33.6 156.1 32 153.6C30.4 150.9 30.2 148 29.2 145.2C29 144.6 29.3 143.5 28.9 143.4C27.7 142.8 28.7 140.9 26.9 140.7C29.1 139.1 26.4 137.9 27 136.3C27.5 134.8 27.1 133 27.1 131.9C24.7 127 23.1 122.5 23 117.4C22.7 116.8 21.9 117.1 21.4 116.9C20.3 113.6 19.3 110.5 17.3 107.5C13.9 102.4 11.6 96.6 8.6 91.2C8.1 90.2 8 89.3 8.1 88.4C8.5 85.2 7 81.8 8.9 78.7C6 75.5 11.4 71.7 8.1 68.5C10.7 66.6 6.6 64.7 8.1 62.8C9.5 61.1 9.1 59.1 9 57.2C9 56.1 10.4 55.7 10 54.6C12.8 53.6 13.2 50.6 14.6 48.5C16.1 46.3 18 44.6 19.7 42.7C22.1 40 23.4 36.6 24.9 33.4C26.3 30.5 27.8 27.1 30.8 26.1C34.8 24.7 35.9 21.7 36.9 18.5C37.5 16.5 39.3 15.3 39.5 13C39.7 11 41.6 9.8 43.1 8.3C42.2 5.6 44.6 3 44 0C41.7 0 39.3 0 37 0C35.2 2.2 34.6 5 33.4 7.6C30.1 15 26.1 22 21.1 28.3C20.9 28.5 20.7 28.7 20.6 29H20.5C20.6 28.8 20.7 28.7 20.8 28.5C24.2 24.6 22.3 19.8 22.7 15.5C23.1 11.2 22.9 6.9 24.3 2.8C24.6 1.9 24.7 0.8 23.9 0C21.2 0 18.6 0 15.9 0C12.5 4.1 13 9.3 13.2 13.8C13.6 22.3 11 30.1 7.3 37.1C2.9 45.2 1.6 53.6 1 62.3C0.8 67.5 0.4 72.8 0.5 78C0.3 78 0.2 78 0 78ZM19 31C19.3 31 19.7 31 20 31C20.6 33.1 17.3 34.4 18.9 36.6C17 37 17 39.2 15.5 39.9C14.7 34.6 14.9 34.1 19 31Z" fill="#B7B7B7"/>
<path d="M20.4 524.2C22.3 522.5 19.1 521.4 20.1 520.4C21.5 518.9 21 517.3 20.9 515.8C20.8 513.4 21 510.9 22.1 508.8C22.9 507.2 22.9 505.8 23 504.2C23 502.6 23 500.9 23 498.9C23.8 498.9 24.2 498.9 24.5 498.9C25.8 500.1 24.1 502.3 25.9 503.3C23.8 504.7 26.3 506 26 507.4C25.9 507.9 26.2 508.5 26 508.9C24.3 511.4 25.3 514.3 25 517C24.9 517.9 25.3 518.9 24.7 519.9C23.3 522 23.9 524.1 25.2 526.5C22.4 527.7 24.4 532.4 20 533.2C20 531.5 19.9 530 20 528.6C20.1 527 19.3 525.2 20.4 524.2Z" fill="#B7B7B7"/>
<path d="M26.0001 492.9C26.0001 494.5 26.0001 496.1 26.0001 497.8C24.1001 497.2 24.1001 497.2 23.1001 494.3C23.6001 493.8 24.0001 493.3 24.5001 492.9C24.6001 492.8 24.8001 492.9 25.0001 492.9C25.1001 492 24.7001 491 25.3001 490.1C26.0001 489.8 26.5001 489.8 27.0001 490.4C27.6001 491.6 25.8001 491.9 26.0001 492.9Z" fill="#B7B7B7"/>
<path d="M31 258.8C31 256.5 31 255.3 31 254C31.1 253.7 31.2 253.2 31.3 253.2C31.9 253.1 32 253.5 32 254C31.8 255.2 32.4 256.7 31 258.8Z" fill="#B7B7B7"/>
<path d="M55.2999 650.8C54.7999 650.2 54.7999 649.7 55.3999 648.8C56.0999 649.8 56.3999 650.4 55.2999 650.8Z" fill="#B7B7B7"/>
<path d="M31.2 250.6C31.3 250.4 31.4 250.2 31.5 249.9C31.6 250 31.7999 250.1 31.7999 250.2C31.6999 250.4 31.6 250.6 31.5 250.9C31.4 250.9 31.2 250.7 31.2 250.6Z" fill="#B7B7B7"/>
<path d="M26.4 488.8C26.3 488.7 26.2 488.6 26 488.4C26.2 488.3 26.4 488.1 26.7 488.1C26.8 488.1 26.9 488.3 27 488.4C26.8 488.6 26.6 488.7 26.4 488.8Z" fill="#B7B7B7"/>
<path d="M27 485.9C27 485.2 27 484.6 27 483.9C27 483.2 27.3 482.9 28 482.9C28.1 482.6 28.2 482.1 28.3 482.1C28.9 482 29 482.4 29 482.9C29 483.6 28.7 483.9 28 483.9C28 484.2 28 484.6 28 484.9C28.3 485 28.8 485.1 28.8 485.2C28.9 485.8 28.5 485.9 28 485.9C27.9 486.2 27.8 486.7 27.7 486.7C27.1 486.9 27 486.4 27 485.9Z" fill="#B7B7B7"/>
</g>
<defs>
<clipPath id="clip0_19_13">
<rect width="72" height="736.9" fill="white"/>
</clipPath>
</defs>
</svg>
