<svg width="450" height="111" viewBox="0 0 450 111" fill="none" xmlns="http://www.w3.org/2000/svg">
<g clip-path="url(#clip0_13_81)">
<path d="M88.8 54.2002C88.8 66.3002 86.5 76.3002 81.9 84.4002C77.3 92.5002 70.6 98.6002 61.9 102.6C53.2 106.7 42.6 108.7 30.3 108.7H0V1.7002H33.6C44.8 1.7002 54.6 3.7002 62.8 7.7002C71.1 11.7002 77.4 17.6002 82 25.4002C86.6 33.1002 88.8 42.7002 88.8 54.2002ZM65.3 54.8002C65.3 46.9002 64.1 40.4002 61.8 35.3002C59.5 30.2002 56 26.4002 51.5 24.0002C47 21.6002 41.4 20.3002 34.8 20.3002H22.7V90.0002H32.4C43.5 90.0002 51.7 87.0002 57.1 81.1002C62.6 75.2002 65.3 66.5002 65.3 54.8002Z" fill="#808080"/>
<path d="M199.2 55.1C199.2 63.4 198.2 70.9 196.1 77.6C194 84.4 190.9 90.2 186.8 95.1C182.6 100 177.3 103.7 170.9 106.3C164.5 108.9 156.9 110.2 148.2 110.2C139.5 110.2 131.9 108.9 125.5 106.3C119.1 103.7 113.8 99.9 109.6 95.1C105.4 90.2 102.3 84.4 100.3 77.6C98.2002 70.8 97.2002 63.3 97.2002 55C97.2002 43.9 99.0002 34.3 102.7 26C106.3 17.8 111.9 11.4 119.5 6.8C127.1 2.3 136.7 0 148.4 0C160 0 169.6 2.3 177.1 6.8C184.6 11.3 190.2 17.7 193.8 26C197.4 34.3 199.2 43.9 199.2 55.1ZM121.1 55.1C121.1 62.6 122 69 123.9 74.4C125.8 79.8 128.7 83.9 132.7 86.9C136.7 89.8 141.9 91.3 148.2 91.3C154.6 91.3 159.9 89.8 163.9 86.9C167.9 84 170.8 79.8 172.7 74.4C174.5 69 175.4 62.6 175.4 55.1C175.4 43.9 173.3 35 169.1 28.6C164.9 22.2 158 18.9 148.4 18.9C142 18.9 136.8 20.4 132.8 23.3C128.8 26.2 125.8 30.4 123.9 35.8C122 41.1 121.1 47.6 121.1 55.1Z" fill="#808080"/>
<path d="M344 1.7002L316.8 108.8H290.9L276.4 52.5002C276.1 51.4002 275.7 49.8002 275.2 47.6002C274.7 45.4002 274.2 43.0002 273.7 40.4002C273.2 37.8002 272.7 35.3002 272.3 33.0002C271.9 30.7002 271.6 28.8002 271.5 27.5002C271.4 28.9002 271.1 30.7002 270.7 33.0002C270.3 35.3002 269.8 37.7002 269.3 40.3002C268.8 42.9002 268.3 45.3002 267.8 47.6002C267.3 49.8002 266.9 51.6002 266.6 52.7002L252 108.8H226.2L198.9 1.7002H221.2L235 60.1002C235.4 61.9002 235.8 64.0002 236.4 66.4002C236.9 68.8002 237.4 71.4002 237.9 74.1002C238.4 76.8002 238.9 79.3002 239.3 81.8002C239.7 84.3002 240 86.4002 240.2 88.2002C240.4 86.3002 240.8 84.2002 241.2 81.7002C241.6 79.2002 242 76.7002 242.5 74.2002C243 71.6002 243.4 69.3002 243.9 67.1002C244.4 64.9002 244.8 63.1002 245.2 61.8002L260.8 1.8002H282.3L297.9 61.8002C298.2 63.1002 298.6 64.9002 299.1 67.1002C299.6 69.3002 300 71.7002 300.5 74.3002C301 76.9002 301.4 79.4002 301.9 81.9002C302.3 84.4002 302.6 86.5002 302.8 88.3002C303.1 85.9002 303.6 82.9002 304.2 79.4002C304.8 75.9002 305.5 72.4002 306.2 69.0002C306.9 65.5002 307.5 62.6002 308.1 60.3002L321.7 1.9002H344V1.7002Z" fill="#808080"/>
<path d="M449.4 108.8H420.5L373.9 27.8002H373.2C373.4 31.2002 373.6 34.6002 373.7 38.0002C373.8 41.4002 374 44.8002 374.1 48.2002C374.2 51.6002 374.4 55.0002 374.5 58.4002V108.8H354.2V1.7002H382.8L429.3 81.9002H429.8C429.7 78.6002 429.6 75.3002 429.4 72.0002C429.3 68.7002 429.1 65.5002 429 62.2002C428.9 58.9002 428.8 55.7002 428.7 52.4002V1.7002H449.1V108.8H449.4Z" fill="#808080"/>
</g>
<defs>
<clipPath id="clip0_13_81">
<rect width="449.4" height="110.2" fill="white"/>
</clipPath>
</defs>
</svg>
