<?xml version="1.0" encoding="utf-8"?>
<!-- Generator: Adobe Illustrator 23.0.3, SVG Export Plug-In . SVG Version: 6.00 Build 0)  -->
<svg version="1.1" id="Calque_1" xmlns="http://www.w3.org/2000/svg" xmlns:xlink="http://www.w3.org/1999/xlink" x="0px" y="0px"
	 width="1397px" height="110.3px" viewBox="0 0 1397 110.3" style="enable-background:new 0 0 1397 110.3;" xml:space="preserve">
<style type="text/css">
	.st0{fill:#808080;}
</style>
<g>
	<path class="st0" d="M11.6,108.7c-2.6,0-4.9-0.2-6.8-0.5c-1.9-0.3-3.5-0.8-4.8-1.3V100c1.4,0.5,3.1,1,5.1,1.3
		c2,0.3,4.1,0.5,6.3,0.5c4,0,7.2-0.8,9.7-2.3c2.5-1.6,4.4-3.9,5.6-7c1.2-3.1,1.8-6.9,1.8-11.4V1.7h7.5V81c0,5.7-0.9,10.6-2.7,14.8
		c-1.8,4.2-4.5,7.4-8.1,9.6C21.8,107.6,17.2,108.7,11.6,108.7z"/>
	<path class="st0" d="M66.5,108.8V1.7h7.5v107.1H66.5z"/>
	<path class="st0" d="M151.6,108.8L112.3,9.9h-0.4c0.1,1.8,0.2,3.7,0.3,5.7s0.1,4,0.2,6.2c0,2.1,0.1,4.4,0.1,6.7v80.3h-7.2V1.7h11.4
		l37.9,95.4h0.4l38.2-95.4h11.1v107.1H197V27.6c0-1.9,0-3.9,0.1-5.9c0-2,0.1-4,0.2-6s0.2-3.9,0.3-5.8h-0.4l-39.5,98.8H151.6z"/>
	<path class="st0" d="M282,108.8L242.7,9.9h-0.4c0.1,1.8,0.2,3.7,0.3,5.7s0.1,4,0.2,6.2c0,2.1,0.1,4.4,0.1,6.7v80.3h-7.2V1.7h11.4
		L285,97.1h0.4l38.2-95.4h11.1v107.1h-7.4V27.6c0-1.9,0-3.9,0.1-5.9c0-2,0.1-4,0.2-6s0.2-3.9,0.3-5.8h-0.4L288,108.8H282z"/>
	<path class="st0" d="M390.6,60.1l31.3-58.5h8.3l-35.7,65.7v41.4H387V68L351,1.7h8.4L390.6,60.1z"/>
	<path class="st0" d="M472.5,1.7c12.7,0,22.3,2.4,28.6,7.3c6.3,4.9,9.5,12.5,9.5,22.8c0,5.3-0.8,10-2.5,14
		c-1.7,4.1-4.2,7.5-7.6,10.3c-3.4,2.8-7.6,4.9-12.6,6.3c-5.1,1.4-11,2.1-17.7,2.1h-16.5v44.2h-7.5V1.7H472.5z M471.7,8.4h-17.9v49.5
		h15.8c6.9,0,12.9-0.8,17.9-2.4c5-1.6,8.8-4.3,11.5-8c2.7-3.8,4-8.9,4-15.4c0-8.3-2.5-14.3-7.6-18.1C490.2,10.2,482.3,8.4,471.7,8.4
		z"/>
	<path class="st0" d="M560.9,1.7c8.5,0,15.6,0.9,21.3,2.8c5.7,1.9,10,4.9,12.9,9.2c2.9,4.2,4.3,10,4.3,17.2c0,5.4-1,10.1-3,14
		c-2,3.9-4.7,7.1-8.2,9.6c-3.5,2.5-7.5,4.4-12,5.7l29.4,48.7h-8.9L569,62.2h-26.6v46.6h-7.5V1.7H560.9z M560.1,8.4h-17.7v47.2h21.3
		c8.7,0,15.6-2.1,20.5-6.3c4.9-4.2,7.4-10.2,7.4-18.1c0-8.6-2.6-14.6-7.8-17.9C578.6,10,570.7,8.4,560.1,8.4z"/>
	<path class="st0" d="M683.4,108.8h-58.5V1.7h58.5v6.8h-51v40.6h48.1v6.8h-48.1V102h51V108.8z"/>
	<path class="st0" d="M755,108.8L715.7,9.9h-0.4c0.1,1.8,0.2,3.7,0.3,5.7c0.1,2,0.1,4,0.2,6.2c0,2.1,0.1,4.4,0.1,6.7v80.3h-7.2V1.7
		h11.4L758,97.1h0.4l38.2-95.4h11.1v107.1h-7.4V27.6c0-1.9,0-3.9,0.1-5.9c0-2,0.1-4,0.2-6c0.1-2,0.2-3.9,0.3-5.8h-0.4L761,108.8H755
		z"/>
	<path class="st0" d="M839.1,108.8V1.7h7.5v107.1H839.1z"/>
	<path class="st0" d="M936.3,108.8h-58.5V1.7h58.5v6.8h-51v40.6h48.1v6.8h-48.1V102h51V108.8z"/>
	<path class="st0" d="M987.5,1.7c8.5,0,15.6,0.9,21.3,2.8c5.7,1.9,10,4.9,12.9,9.2c2.9,4.2,4.3,10,4.3,17.2c0,5.4-1,10.1-3,14
		c-2,3.9-4.7,7.1-8.2,9.6c-3.5,2.5-7.5,4.4-12,5.7l29.4,48.7h-8.9l-27.6-46.6h-26.6v46.6h-7.5V1.7H987.5z M986.8,8.4h-17.7v47.2
		h21.3c8.7,0,15.6-2.1,20.5-6.3c4.9-4.2,7.4-10.2,7.4-18.1c0-8.6-2.6-14.6-7.8-17.9C1005.3,10,997.4,8.4,986.8,8.4z"/>
	<path class="st0" d="M1048.5,103.6c0-2.1,0.5-3.8,1.5-4.9c1-1.1,2.4-1.7,4.3-1.7c2.1,0,3.6,0.6,4.6,1.7c1,1.1,1.5,2.8,1.5,4.9
		c0,2.1-0.5,3.8-1.5,5c-1,1.2-2.5,1.8-4.6,1.8c-1.9,0-3.3-0.6-4.3-1.8C1049,107.4,1048.5,105.7,1048.5,103.6z"/>
	<path class="st0" d="M1133.7,7c-6.8,0-12.9,1.2-18.3,3.5c-5.4,2.3-9.9,5.6-13.6,9.9c-3.7,4.2-6.5,9.3-8.5,15.2
		c-2,5.9-2.9,12.4-2.9,19.5c0,9.8,1.5,18.3,4.6,25.6c3.1,7.3,7.7,13,13.9,17c6.2,4,13.9,6,23.1,6c5.4,0,10.3-0.4,14.7-1.2
		c4.4-0.8,8.5-1.8,12.2-3.1v6.6c-3.6,1.3-7.6,2.4-12.1,3.2c-4.5,0.8-9.7,1.2-15.6,1.2c-10.7,0-19.7-2.3-26.9-6.9
		c-7.3-4.6-12.7-11-16.4-19.3c-3.7-8.3-5.5-18-5.5-29.1c0-8,1.1-15.3,3.4-21.9c2.3-6.7,5.7-12.5,10.1-17.4
		c4.4-4.9,9.8-8.7,16.2-11.4c6.3-2.7,13.6-4.1,21.7-4.1c5.1,0,10,0.5,14.7,1.5c4.7,1,9,2.5,13.1,4.4l-2.9,6.6c-4-2-8-3.4-12.2-4.3
		C1142.4,7.4,1138.1,7,1133.7,7z"/>
	<path class="st0" d="M1272.4,55.1c0,8.2-1,15.6-3,22.3c-2,6.7-5,12.6-9,17.4c-4,4.9-9,8.7-15,11.4s-13,4-20.9,4c-8,0-15-1.3-21-4
		s-11-6.5-15-11.4c-4-4.9-7-10.7-9-17.5c-2-6.8-3-14.2-3-22.4c0-10.8,1.8-20.4,5.5-28.6c3.7-8.3,9.1-14.7,16.3-19.3
		c7.2-4.6,16.1-7,26.7-7c10.2,0,18.8,2.2,25.8,6.6c7.1,4.4,12.4,10.7,16,19C1270.5,33.8,1272.4,43.7,1272.4,55.1z M1184.4,55
		c0,9.6,1.4,18,4.3,25.3c2.9,7.3,7.3,13,13.3,17.1c6,4.1,13.5,6.2,22.6,6.2c9.2,0,16.7-2,22.6-6.1c5.9-4.1,10.3-9.7,13.1-17
		c2.8-7.3,4.2-15.8,4.2-25.4c0-15.3-3.3-27.2-10-35.6C1247.9,11,1238,6.8,1225,6.8c-9.1,0-16.7,2-22.7,6.1
		c-6,4.1-10.5,9.7-13.5,16.9C1185.9,37,1184.4,45.4,1184.4,55z"/>
	<path class="st0" d="M1344.2,108.8l-39.3-98.9h-0.4c0.1,1.8,0.2,3.7,0.3,5.7c0.1,2,0.1,4,0.2,6.2c0,2.1,0.1,4.4,0.1,6.7v80.3h-7.2
		V1.7h11.4l37.9,95.4h0.4l38.2-95.4h11.1v107.1h-7.4V27.6c0-1.9,0-3.9,0.1-5.9c0-2,0.1-4,0.2-6c0.1-2,0.2-3.9,0.3-5.8h-0.4
		l-39.5,98.8H1344.2z"/>
</g>
</svg>
